<svg version="1.0" width="609.331" height="126.757" viewBox="0 0 456.998 95.068" xmlns="http://www.w3.org/2000/svg"><path d="M147.198 2.368c-2.2 2.3-2.2 2.6-2.2 45.4v43.2l2.6 2c3.8 3 8.1 2.7 11-.7l2.4-2.7v-85.1l-2.5-2.2c-3.4-3-8.5-2.9-11.3.1zm34.7-.7c-.5.6-.5 1.5-.1 1.9.4.5.1.5-.5.1-.8-.4-1.7.2-2.5 1.8-.9 2.2-.8 2.9.7 4.6 1 1.1 1.4 2 .9 2-.5 0-.1.5.9 1.1.9.5 2.2.7 2.7.4.6-.4.9-.1.8.7-.2 1 1.5 1.3 7.2 1.3s8 .4 9.4 1.7c1.1 1 2.3 1.8 2.6 1.8.4 0 1.5 1.6 2.6 3.5 1 1.9 2.1 3.5 2.4 3.5.3 0 .5 2.2.5 4.9s-.3 4.7-.7 4.5c-.3-.2-.9.9-1.3 2.6-.4 1.6-1.3 3-2 3-.8 0-1.8.6-2.2 1.4-1.5 2.4-5.1 3.6-12 3.8l-6.8.1 5 .7 5 .7-6-.1c-5.5-.1-6.2.1-8.2 2.8-1.3 1.7-2.3 3.6-2.3 4.3 0 1.8 24.1 26.4 25.2 25.7.4-.3.8 0 .8.7s3 4.1 6.7 7.6c5.7 5.3 7.3 6.3 10.4 6.3 3.8 0 6.2-1.8 7.4-5.8.8-2.9-3.1-9.6-5.2-8.8-.8.3-1.1.1-.8-.4.3-.6-3.5-5-8.4-9.9-7.8-7.7-8.9-9.2-7.6-10.3 3.2-2.9 4.5-3.8 5.3-3.8 1.3 0 7.9-7.3 10.2-11.5 1.2-2.1 1.9-4.4 1.6-5.2-.3-.8-.1-1.1.4-.8 1.2.8 1.1-13-.2-17.3-.5-1.8-1.4-2.9-2-2.6-.6.4-.8-.1-.4-1.4.5-1.4 0-2.5-1.6-3.6-1.2-.9-1.9-1.6-1.5-1.6.4 0 .2-.6-.5-1.4-.7-.8-1.7-1.1-2.2-.8-.5.3-.6 0-.3-.5.4-.6 0-1.6-.8-2.3-.8-.7-1.5-.9-1.5-.4s-.7-.2-1.6-1.5c-1.1-1.5-2.3-2.1-3.5-1.8-1.1.3-1.7.1-1.3-.4 1.1-1.8-5-2.9-14.3-2.7-5.3.2-9.9.8-10.4 1.4zm98.9-.2c-1 .7-1.5 1.6-1.1 1.9.3.4.1.7-.5.7-1.7 0-2.4 3.5-1.1 6.3.6 1.4 2.2 3.1 3.5 3.8 1.3.6 2.6 2.1 3 3.1.3 1.2 1.2 1.7 2 1.4.8-.3 1.2-.2.9.4-.3.5 1.3 2.6 3.6 4.7s5.3 5 6.7 6.5c1.3 1.5 2.9 2.5 3.4 2.2.5-.3.7-.2.6.3-.4 1.2 7.2 8.9 8.4 8.5.5-.1.7.2.4.7-.3.5 1.4 2.6 3.9 4.6 2.4 2.1 4.7 4.6 5.1 5.7.3 1.1 1.2 1.7 2 1.4.8-.3 1.3 0 1.1.7-.1.7.5 1 1.3.9.8-.2 1.2 0 .7.4-1.2 1.3 3.4 5.3 6.9 6 3.8.7 9.8-2.2 8.9-4.4-.2-.7-.1-1.1.4-.8 1.2.8 3.3-1.9 2.3-2.8-.4-.4-.2-.7.3-.6 2.5.5 3.7-.1 3.1-1.6-.3-.8-.2-1.2.3-.9 1.4.8 6.3-4.4 5.5-5.7-.4-.7-.2-.8.4-.4 1.4.9 8.5-6.2 7.6-7.6-.5-.7-.2-.8.5-.4 1.4.9 7.4-5.2 6.5-6.5-.3-.5.1-.6.8-.4 1.6.7 18.4-16.4 19.8-20 1.2-3.1-.2-7-2.9-8.4-3.8-2.1-7.9-1.3-11.6 2.3-1.9 1.9-3.5 3.9-3.5 4.5 0 .5-.5 1.3-1.2 1.7-.7.5-.8.3-.3-.7.5-.8-1.2.6-3.7 3.1s-4.4 4.8-4.1 5.2c.2.5-.2.8-1 .8-1.8 0-8.8 7.6-7.9 8.6.4.4.2.5-.4.1-.5-.3-4.5 3-8.8 7.4-4.2 4.3-8.2 7.9-8.7 7.9-.6 0-.7.6-.3 1.2.4.7-3.2-2.5-8-7.2s-9.2-8.4-9.8-8.2c-.5.1-.7-.1-.4-.6.3-.5-1.7-3-4.4-5.5-2.8-2.6-5-5.2-5-5.8 0-.6-.7-.9-1.5-.5-.8.3-1.4.2-1.4-.2.4-2.2-.3-3.4-1.5-2.9-.8.3-1.3-.1-1.2-1.1.1-1.1-.6-1.6-1.7-1.6-1 .1-1.6-.1-1.3-.4.9-.9-1.5-3.2-2.7-2.5-.5.3-.7.1-.4-.5.4-.5-.7-2.2-2.4-3.6-3.4-2.9-8.3-3.4-11.1-1.2zm161.6.7c-1.8 2-1.9 4.2-1.9 45.4 0 40.7.1 43.4 1.8 45.3 2.9 3.2 8.9 2.7 12.1-.9l2.6-2.9v-42c0-37.6-.5-46-2.3-40.8-.2.7-.3.4-.1-.7.8-5.1-8.3-7.7-12.2-3.4zm-413.4 1.9c0 .5-.7 1-1.5 1s-1.5.4-1.5 1c0 .5-.7.7-1.5.4-2.1-.8-18.5 15.7-18.5 18.5 0 1.2-.5 2.1-1.1 2.1-.7 0-.9 1-.7 2.5.3 1.3.1 2.3-.4 2.2-.5-.1-1.6 1.6-2.3 3.8-1.6 4.4-2.1 22-.6 22.9.5.3 1.2 2.2 1.5 4.1.4 2 1.3 3.8 2.1 4.1.8.3 1.2 1.1.9 1.8-.6 1.6 5.9 10.2 7.5 9.8.6-.1 1.1.5 1.1 1.4 0 .9.5 1.2 1.2.8.6-.4.8-.3.5.3-.9 1.4 4.3 6.5 5.9 5.9.8-.3 1.3 0 1.1.7-.1.7.5 1.2 1.3 1.2s2.4.8 3.4 1.7c3.1 2.8 7.3 2.3 10.7-1.5 2.8-3.1 3.6-7.4 1.2-7-.6.1-1-.5-.9-1.3 0-.8-1.2-2.2-2.9-3.2-1.6-.9-3.3-2.1-3.7-2.6-.3-.5-1.7-1-3-1.1-1.2-.1-2.3-.6-2.3-1.1 0-.5-1.7-3.2-3.7-6.1-2.1-2.8-3.8-5.6-3.8-6.2 0-.7-.4-1-.8-.7-1 .6-1.5-3.3-1.5-11.9 0-8.3.5-12.5 1.4-11.9.6.3 1.5-1.7 1.7-4 0-.5.5-1.2 1-1.5.5-.3 2.6-2.6 4.6-4.9 2-2.4 3.6-4 3.6-3.6 0 .4 1-.2 2.3-1.4 1.3-1.2 2.6-2 2.9-1.7.7.8 6.8-5.3 6.8-6.8 0-2.1-4-7.8-5-7.2-.6.3-1 .1-1-.4 0-.6-1.3-1.1-3-1.1-1.6 0-3 .4-3 1zm33 0c0 .7-.3 1-.6.7-1.1-1.1-4.4 3.4-4.4 5.9 0 2.2 4.8 8.9 5.7 8 .3-.3 1-.1 1.7.4 6 5 7.4 5.8 8.1 5.2.5-.4.6-.2.2.4-.3.5.9 2.6 2.8 4.6 1.8 2 3.1 3.9 2.8 4.2-.3.2-.1 1.1.3 1.8 1.3 2 1.6 3.6 2.3 12.1.3 4.2.3 7.7-.1 7.7-.5 0-.8.9-.8 1.9 0 1.1-.5 2.3-1 2.6-.6.4-.8 1.1-.5 1.6.4.5.2.9-.4.9-.5 0-1.2.8-1.5 1.7-.3 1-1.9 3.2-3.5 4.9-1.7 1.8-2.8 3.5-2.5 3.8.2.3.1.4-.2.1-.4-.2-1.9.4-3.3 1.4-1.4 1-3.4 2.1-4.4 2.4-1.1.4-1.5 1.2-1.1 1.8.5.8.3.9-.5.5-1.7-1.1-4 2.2-4.1 5.5 0 1.5.7 2.9 1.6 3.3.9.3 1.2 1.1.8 1.8-.5.8-.2.9.9.5 1-.4 1.6-.2 1.4.6-.1.7 1 1.3 2.5 1.5 3.3.4 13.1-4.6 12.1-6.1-.3-.6-.1-.7.5-.3 1.1.7 8.2-5.7 8.2-7.4 0-.6.7-1 1.5-1s1.5-.5 1.5-1.1c0-.6.7-1.7 1.5-2.6.8-.8 1.3-1.9 1-2.4-.4-.5-.2-.9.4-.9.7 0 4.2-7.3 4.7-10 0-.3.4-1.2.8-2 .8-2 .1-22.9-.9-25.3-.6-1.5-1-1.6-1.7-.5-.7 1-.8.9-.4-.5.6-1.9-1.2-6.7-2.6-6.7-.5 0-.7-.4-.4-.9.3-.5-.1-1.4-.9-2.1-.8-.7-1.5-1.7-1.5-2.2 0-1.3-2.6-3.8-3.9-3.8-.6 0-1-.4-.8-.9.2-.8-4.9-6.1-5.9-6.1-.3 0-2.1-1.2-3.9-2.6-3.9-2.9-11.5-4.5-11.5-2.4zm224 43.1c2.1.7 1.9.8-1.2.5-6.4-.8-6.7.2-6.9 22.9-.1 14 .2 20 1 20.3.6.2.8.9.4 1.5s0 .8 1 .4c1.1-.4 1.4-.2 1 .8-.5 1.4 2 1.5 9 .6.4-.1.7-.7.7-1.5s.6-1.6 1.3-1.8c.9-.4 1.2-5.3 1.3-19.8l.2-19.4-2.8-2.8c-1.6-1.6-3.9-2.8-5.2-2.7-2.3.1-2.3.1.2 1zm92.6.1c.5.8.2.9-.9.5s-2.3.3-3.7 2.2c-1.8 2.7-2 4.4-2 21.4v18.4l2.6 2.7c3.2 3.1 7.8 3.4 11.4.6 2.5-1.9 2.5-2.1 2.8-18.2.4-20.3-.1-24.1-3.5-26.3-1.4-.9-2.3-1.3-1.9-.7.4.6-.2.8-1.5.5-1.6-.4-1.7-.8-.7-1.4.9-.6.6-.9-1-.9-1.5 0-2.1.4-1.6 1.2z" fill="#5ea0e6"/></svg>