<?xml version="1.0" encoding="UTF-8"?>
<svg width="20px" height="20px" viewBox="0 0 20 20" version="1.1" xmlns="http://www.w3.org/2000/svg" xmlns:xlink="http://www.w3.org/1999/xlink">
    <!-- Generator: Sketch 57.1 (83088) - https://sketch.com -->
    <title>site/wallet</title>
    <desc>Created with Sketch.</desc>
    <defs>
        <linearGradient x1="0%" y1="15.2777778%" x2="101.999998%" y2="85.416666%" id="linearGradient-1">
            <stop stop-color="#FE815F" offset="0%"></stop>
            <stop stop-color="#FE5FC9" offset="100%"></stop>
        </linearGradient>
    </defs>
    <g id="site/wallet" stroke="none" stroke-width="1" fill="none" fill-rule="evenodd">
        <path d="M16.0530663,2.58370768 C16.8675122,2.58370768 17.5277511,3.36178205 17.5277511,4.32158544 L17.5277511,7.31235183 L12.8121895,7.31235183 C11.5652349,7.31235183 10.5520176,8.49170721 10.5318779,9.95555482 L10.5315724,10 C10.5315724,11.4695036 11.5323202,12.663554 12.7744753,12.6872881 L12.8121895,12.6876482 L17.5277511,12.6876482 L17.5277511,15.6784146 C17.5277511,16.6382179 16.8675122,17.4162923 16.0530663,17.4162923 L2.57513393,17.4162923 C1.76068805,17.4162923 1.10044921,16.6382179 1.10044921,15.6784146 L1.10044921,4.32158544 C1.10044921,3.36178205 1.76068805,2.58370768 2.57513393,2.58370768 L16.0530663,2.58370768 Z M18.2822409,8.08025131 C18.6231717,8.08025131 18.8995508,8.40595686 18.8995508,8.80773502 L18.8995508,11.192265 C18.8995508,11.5940431 18.6231717,11.9197487 18.2822409,11.9197487 L12.9836644,11.9197487 C12.0839858,11.9197487 11.3546522,11.0602479 11.3546522,10 C11.3546522,8.93975207 12.0839858,8.08025131 12.9836644,8.08025131 L18.2822409,8.08025131 Z" id="Shape" fill="url(#linearGradient-1)"></path>
    </g>
</svg>